<?xml version="1.0" encoding="utf-8"?>
<!-- Generator: Adobe Illustrator 16.0.0, SVG Export Plug-In . SVG Version: 6.00 Build 0)  -->
<!DOCTYPE svg PUBLIC "-//W3C//DTD SVG 1.1//EN" "http://www.w3.org/Graphics/SVG/1.1/DTD/svg11.dtd">
<svg version="1.1" id="Layer_1" xmlns="http://www.w3.org/2000/svg" xmlns:xlink="http://www.w3.org/1999/xlink" x="0px" y="0px"
	 width="55.631px" height="100px" viewBox="22.185 0 55.631 100" enable-background="new 22.185 0 55.631 100" xml:space="preserve"
	>
<path d="M75.778,26.013l-4.495-4.052v-0.062l1.438-1.714l-1.437-1.711v-0.048l1.437-1.71l-1.431-1.708v-0.057l1.431-1.708
	l-1.428-1.702l-1.93-2.297H67.63C68.505,1.351,65.086,0,65.086,0c-0.158,1.907-2.12,3.021-3.073,3.603
	c-0.956,0.585-3.285,1.007-4.873,1.007s-4.662,0-8.425,0.689c-3.765,0.687-4.398,3.945-4.398,3.945H30.649l-1.944,2.297
	l-1.428,1.702l1.43,1.707v0.058l-1.429,1.708l1.437,1.71v0.048l-1.437,1.711l1.439,1.714v0.062l-4.494,4.052
	c0,0-2.038,1.907-2.038,3.894V31.6c0,5.711,0,22.783,0,22.783v15.18c0,0,0,7.313,0,13.749c0,7.709,10.023,16.688,10.023,16.688
	h35.585c0,0,10.022-8.979,10.022-16.688c0-6.436,0-13.749,0-13.749V54.385c0,0,0-17.073,0-22.784v-1.694
	C77.813,27.92,75.778,26.013,75.778,26.013z M31.82,11.787h36.359l1.168,1.387l0.061,0.068l-0.064,0.07l-0.592,0.708l-0.408,0.483
	l-0.396,0.473l0.805,0.958l0.592,0.708l0.061,0.071l-0.062,0.073l-0.599,0.708l-0.375,0.449l-0.024,0.026H40.034v0.955h28.311
	l0.397,0.473l0.597,0.709l0.064,0.075l-0.066,0.081l-0.595,0.709l-0.417,0.495l-0.059,0.074h-36.53l-0.061-0.074l-0.415-0.493
	l-0.595-0.709l-0.067-0.081l0.061-0.074l0.598-0.709l0.798-0.95l-0.423-0.504l-0.375-0.449l-0.598-0.708l-0.061-0.075l0.058-0.071
	l0.594-0.708l0.487-0.578h28.227v-0.955H31.572l-0.321-0.381l-0.594-0.708l-0.061-0.07L31.82,11.787z M66.791,97.459H33.209
	c-2.891-2.781-8.481-9.192-8.481-14.147h50.543C75.271,88.265,69.681,94.678,66.791,97.459z M62.725,72.456
	c0.067,0.664-0.385,2.086-0.905,2.523c-0.521,0.439-0.951,0.859-2.094,1.379c-1.145,0.514-1.934,0.612-2.67,0.616
	c-0.741,0-2.452-0.354-3.367-0.851c-0.916-0.493-1.938-0.925-2.795-1.803c-0.855-0.881-1.801-2.165-2.354-3.257
	c-0.554-1.087-0.987-2.209-1.349-3.519c-0.359-1.302-0.524-2.51-0.582-3.28c-0.057-0.776-0.128-2.002-0.381-2.629
	c-0.255-0.626-0.395-1.056-0.904-1.392c-0.505-0.333-0.593-0.426-1.529-0.765c-0.935-0.343-1.738-0.66-2.744-1.453
	c-1.004-0.794-1.777-2.141-1.926-2.408c-0.152-0.268-1.029-1.485-1.29-2.25c-0.261-0.763-0.471-1.803-0.632-3.187
	c-0.158-1.385-0.286-4.792,0.114-6.178c0.4-1.39,0.817-3.176,1.128-3.673c0.315-0.496,0.575-0.839,0.726-0.939
	c0,0,1.443-1.04,3.039-1.322c1.596-0.281,3.005-0.036,3.821,0.412c0.818,0.446,2.406,1.5,3.044,2.12
	c0.638,0.62,2.475,2.729,2.91,4.095c0.432,1.37,0.792,2.851,0.906,3.91s0.255,1.857,0.468,2.228
	c0.211,0.366,0.412,0.534,0.625,0.661c0.21,0.124,2.039,1.112,2.967,1.989c0.925,0.877,2.084,1.861,2.867,3.104
	c0.778,1.239,2.311,3.665,2.737,5.143c0.424,1.478,0.505,2.909,0.4,4.621c-0.107,1.714-0.251,2.813-0.282,3.677
	C62.636,70.892,62.661,71.791,62.725,72.456z M75.271,31.601H24.727v-1.694c0-0.486,0.647-1.475,1.221-2.028l4.474-4.03l0.838-0.757
	l0.304-0.277h36.871l0.305,0.277l0.838,0.757l4.475,4.03c0.573,0.553,1.223,1.542,1.223,2.028v1.694H75.271z"/>
</svg>
